<?xml version="1.0" encoding="UTF-8"?>
<svg width="581px" height="138px" viewBox="0 0 581 138" version="1.1" xmlns="http://www.w3.org/2000/svg" xmlns:xlink="http://www.w3.org/1999/xlink">
    <title>logo-dark</title>
    <g id="Page-1" stroke="none" stroke-width="1" fill="none" fill-rule="evenodd">
        <g id="Artboard" transform="translate(-51, -82)">
            <g id="logo-dark" transform="translate(51, 82)">
                <path d="M32,42.0574456 L32,54.0574456 C20.954305,54.0574456 12,61.2208896 12,70.0574456 L12,109.057446 L0,109.057446 L0,45.0574456 L12,45.0574456 L12.0004022,48.1983651 C17.4787322,44.3558472 24.4326115,42.0574456 32,42.0574456 Z M66,42.0574456 C83.673112,42.0574456 98,54.5934726 98,70.0574456 L98,82.0574456 L46.038506,82.0584639 C46.6843778,90.428713 55.3745493,97.0574456 66,97.0574456 L90,97.0574456 L90,109.057446 L66,109.057446 L65.4708215,109.053694 C48.0417829,108.806432 34,96.3667788 34,81.0574456 L34,70.0574456 C34,54.5934726 48.326888,42.0574456 66,42.0574456 Z M66,54.0574456 C54.954305,54.0574456 46,61.2208896 46,70.0574456 L86,70.0574456 C86,61.2208896 77.045695,54.0574456 66,54.0574456 Z M382,42.0574456 C399.673112,42.0574456 414,54.5934726 414,70.0574456 L414,82.0574456 L362.038506,82.0584639 C362.684378,90.428713 371.374549,97.0574456 382,97.0574456 L406,97.0574456 L406,109.057446 L382,109.057446 L381.470821,109.053694 C364.041783,108.806432 350,96.3667788 350,81.0574456 L350,70.0574456 C350,54.5934726 364.326888,42.0574456 382,42.0574456 Z M382,54.0574456 C370.954305,54.0574456 362,61.2208896 362,70.0574456 L402,70.0574456 C402,61.2208896 393.045695,54.0574456 382,54.0574456 Z M155.996693,82.3539247 C155.800757,91.0548593 146.922965,98.06 136,98.06 C124.954305,98.06 116,90.896556 116,82.06 L116,70.06 C116,61.223444 124.954305,54.06 136,54.06 C147.045695,54.06 156,61.223444 156,70.06 L156,82.06 L155.996693,82.3539247 Z M168,70.06 C168,54.596027 153.673112,42.06 136,42.06 C128.432154,42.06 121.477891,44.3586797 115.999408,48.201617 L116,45.06 L104,45.06 L104,129.06 L116,129.06 L115.999408,103.918383 C121.477891,107.76132 128.432154,110.06 136,110.06 C153.673112,110.06 168,97.523973 168,82.06 L168,70.06 Z M176,0.4 L188,0.4 L188,90.4 C188,94.818278 193.372583,98.4 200,98.4 L200,110.4 C186.745166,110.4 176,101.445695 176,90.4 L176,0.4 Z M240,54.06 L220,54.06 L220,42.06 L240,42.06 C253.254834,42.06 264,51.014305 264,62.06 L264,89.06 C264,93.478278 269.372583,97.06 276,97.06 L276,109.06 C268.831983,109.06 262.397915,106.441326 258.000254,102.289362 C253.603069,106.440926 247.168565,109.06 240,109.06 L228,109.06 C214.745166,109.06 204,100.105695 204,89.06 C204,78.014305 214.745166,69.06 228,69.06 L252,69.06 L252,62.06 C252,57.641722 246.627417,54.06 240,54.06 Z M252,81.06 L228,81.06 C221.372583,81.06 216,84.641722 216,89.06 C216,93.478278 221.372583,97.06 228,97.06 L240,97.06 C246.627417,97.06 252,93.478278 252,89.06 L252,81.06 Z M294,137.06 L294,125.06 L310,125.06 C321.045695,125.06 330,117.896556 330,109.06 L330.000592,103.918383 C324.522109,107.76132 317.567846,110.06 310,110.06 C292.326888,110.06 278,97.523973 278,82.06 L278,45.06 L290,45.06 L290,82.06 C290,90.896556 298.954305,98.06 310,98.06 C321.045695,98.06 330,90.896556 330,82.06 L330,45.06 L342,45.06 L342,109.06 C342,124.523973 327.673112,137.06 310,137.06 L294,137.06 Z M484,0 L484,109 L472,109 L471.999598,103.85908 C466.521268,107.701598 459.567388,110 452,110 C434.503619,110 420.286872,97.7134399 420.004287,82.4630312 L420,82 L420,70 C420,54.536027 434.326888,42 452,42 C459.567388,42 466.521268,44.2984016 471.999598,48.1409195 L472,0 L484,0 Z M452,54 C440.954305,54 432,61.163444 432,70 L432,82 C432,90.836556 440.954305,98 452,98 C463.045695,98 472,90.836556 472,82 L472,70 C472,61.163444 463.045695,54 452,54 Z" fill="#FFFFFF"></path>
                <path d="M524.5,42 L524.5,109 L578.903471,78.1628636 C580.344875,77.3458431 580.851037,75.5150289 580.034016,74.0736255 C579.767114,73.6027517 579.377793,73.2128569 578.907313,72.9452617 L524.5,42 L524.5,42 Z M500,42 L512,42 L512,109 L500,109 Z" id="Combined-Shape" fill="#FFDAB3"></path>
            </g>
        </g>
    </g>
</svg>